<svg id="Layer_1" data-name="Layer 1" xmlns="http://www.w3.org/2000/svg" viewBox="0 0 500 135"><defs><style>.cls-1{fill:#318ca9;}.cls-2{fill:#58595b;}</style></defs><title>logo</title><g id="_Group_" data-name="&lt;Group&gt;"><path id="_Compound_Path_" data-name="&lt;Compound Path&gt;" class="cls-1" d="M67.62,16.52V89.15H54.15L23.72,39.72l-4.95-8.14-2.45-4-2.45-4h-.21l.05,2.71L13.76,29V89.15H5.57V16.52H19L45.53,59.83l6.92,11.39,3.46,5.64,3.41,5.69h.21l-.05-2.71-.05-2.77V16.52Z"/><path id="_Compound_Path_2" data-name="&lt;Compound Path&gt;" class="cls-1" d="M126.1,73.77H89.33L83.74,89.15H75.07l26.61-72.63h11.49L140.3,89.15h-8.57ZM123.7,67.6,107.58,23.22,91.67,67.6Z"/><path id="_Compound_Path_3" data-name="&lt;Compound Path&gt;" class="cls-1" d="M199.1,16.52v6.92L153.39,82.08v.16h46.67v6.92H143.39V82.08L189,23.6v-.16H144.72V16.52Z"/><path id="_Compound_Path_4" data-name="&lt;Compound Path&gt;" class="cls-1" d="M254.18,73.77H217.41l-5.59,15.38h-8.67l26.61-72.63h11.49l27.14,72.63h-8.57Zm-2.4-6.17L235.66,23.22,219.75,67.6Z"/><path id="_Compound_Path_5" data-name="&lt;Compound Path&gt;" class="cls-1" d="M275.84,89.15V16.52h34.59q11.71,0,16.5,4.63t4.79,16.07q0,10.06-2.61,14t-10,5.14v.16q11.55.85,11.55,14V89.15h-8.2V72.44q0-12.72-11-12.72H284V89.15ZM284,52.81h23.68q9.36,0,12.77-2.85t3.41-10.72q0-9.84-2.53-12.82t-10.83-3H284Z"/><path id="_Compound_Path_6" data-name="&lt;Compound Path&gt;" class="cls-1" d="M351.93,16.52V89.15h-8.19V16.52Z"/><path id="_Compound_Path_7" data-name="&lt;Compound Path&gt;" class="cls-1" d="M420.89,16.52l-27.46,42.3V89.15h-8.2V58.82l-26.77-42.3H368L383.59,41l3,4.74q.58.85,1.49,2.34l1.44,2.39h.21l1.44-2.39,1.44-2.34,3-4.74,15.54-24.53Z"/><path id="_Compound_Path_8" data-name="&lt;Compound Path&gt;" class="cls-1" d="M471.87,73.77H435.1l-5.59,15.38h-8.67l26.61-72.63h11.49l27.14,72.63h-8.57Zm-2.39-6.17L453.35,23.22,437.44,67.6Z"/></g><g id="_Group_2" data-name="&lt;Group&gt;"><path id="_Compound_Path_9" data-name="&lt;Compound Path&gt;" class="cls-2" d="M2.7,123.86l7-26.51H21.92q5.66,0,7,2.51t-.53,9.59q-2.28,8.62-4.83,11.52t-7.91,2.89Zm3.64-2.52h8.6q4.73,0,6.61-1.9t3.61-8.49q1.91-7.22,1.23-9.15t-5.18-1.92H12Z"/><path id="_Compound_Path_10" data-name="&lt;Compound Path&gt;" class="cls-2" d="M33.59,105.29H36.3l-.84,2.14,0,.06a7.58,7.58,0,0,1,6-2.62q5.1,0,3.7,5.28l-.36,1.28H42.17l.18-.47q.25-.74.32-1,.75-2.85-2.34-2.85-4.52,0-6,5.61l-2.94,11.13H28.69Z"/><path id="_Compound_Path_11" data-name="&lt;Compound Path&gt;" class="cls-2" d="M56.79,105q5.12,0,6.17,1.79t-.53,7.77q-1.58,6-3.58,7.77t-7.12,1.79q-5.1,0-6.16-1.79t.53-7.77q1.58-6,3.58-7.77T56.79,105Zm-.6,2.25q-3.59,0-4.76,1.18T49,114.58q-1.31,5-.76,6.13t4.14,1.18q3.61,0,4.78-1.18t2.48-6.13q1.31-5,.76-6.13T56.2,107.27Z"/><path id="_Compound_Path_12" data-name="&lt;Compound Path&gt;" class="cls-2" d="M69.11,105.29h2.7l-.76,2.35.06.06Q73.24,105,77.89,105q4.12,0,5.11,2.1t-.5,7.73q-1.38,5.23-3.48,7.25a8.44,8.44,0,0,1-6.1,2q-4.56,0-5.38-2.47h-.06L64.8,131.82H62.1Zm7.44,2q-3.25,0-4.6,1.41t-2.59,6q-1.13,4.29-.45,5.72t3.89,1.43q3.05,0,4.39-1.38t2.48-5.69q1.25-4.74.68-6.14T76.55,107.27Z"/><path id="_Compound_Path_13" data-name="&lt;Compound Path&gt;" class="cls-2" d="M100.64,110.5H98q.86-3.24,2.61-4.36t6-1.12q4.62,0,5.88,1.37t.24,5.21l-3.24,12.25h-2.7l.74-2-.05,0q-2.15,2.29-6.88,2.29-7,0-5.5-5.65a7.7,7.7,0,0,1,2.79-4.64q1.9-1.28,6-1.28,4.87,0,5.33,1.92l.06,0,.6-2.25q.84-3.19.22-4.13t-3.56-.94q-5,0-5.73,2.82C100.74,110,100.7,110.22,100.64,110.5Zm3.24,4.18a9.17,9.17,0,0,0-4.22.66A4.45,4.45,0,0,0,98,118.17q-.6,2.25.14,3t3.57.73q5.72,0,6.64-3.5.58-2.2-.33-3T103.88,114.67Z"/><path id="_Compound_Path_14" data-name="&lt;Compound Path&gt;" class="cls-2" d="M139.05,105.29l-.6,2.25h-7.11l-3,11.36q-.79,3,1.84,3a3.17,3.17,0,0,0,3.31-2.66l.26-.91.31-1h2.51l-.34,1.38q-1.45,5.48-6.63,5.48-5.35,0-4.15-4.56l.17-.66,3-11.36h-2.55l.6-2.25h2.55l1.18-4.47h2.7l-1.18,4.47Z"/><path id="_Compound_Path_15" data-name="&lt;Compound Path&gt;" class="cls-2" d="M146.95,97.35l-2.71,10.23,0,0Q146,105,150.7,105q7,0,5.31,6.22l-.2.76-3.14,11.87H150L153.1,112l.14-.52q1.11-4.19-3.16-4.2-3.44,0-4.92,1.23t-2.46,4.9l-2.76,10.45h-2.7l7-26.51Z"/><path id="_Compound_Path_16" data-name="&lt;Compound Path&gt;" class="cls-2" d="M170.19,105q5.12,0,6.17,1.79t-.53,7.77q-1.58,6-3.58,7.77t-7.12,1.79q-5.1,0-6.16-1.79t.53-7.77q1.58-6,3.58-7.77T170.19,105Zm-.6,2.25q-3.59,0-4.76,1.18t-2.48,6.13q-1.31,5-.76,6.13t4.14,1.18q3.61,0,4.78-1.18t2.48-6.13q1.31-5,.76-6.13T169.6,107.27Z"/><path id="_Compound_Path_17" data-name="&lt;Compound Path&gt;" class="cls-2" d="M197.58,105.29l-4.91,18.57H190l.83-2.43,0-.06q-2.14,2.76-6.76,2.76-6.47,0-4.76-6.49l3.27-12.35h2.7l-3.27,12.35q-.67,2.52-.06,3.38t3,.85a7.26,7.26,0,0,0,4.71-1.27,9,9,0,0,0,2.42-4.67l2.81-10.64Z"/><path id="_Compound_Path_18" data-name="&lt;Compound Path&gt;" class="cls-2" d="M218,105.29l-5.23,19.77q-1.07,4-3.21,5.55t-6.78,1.51q-4.13,0-5.3-1.28t-.24-4.8h2.61q-.63,2.39.06,3.11t3.66.72a7.83,7.83,0,0,0,4.4-.93,6.34,6.34,0,0,0,2-3.65l1-3.73-.05,0q-1.73,2.58-6.71,2.58-4.1,0-5.11-2t.41-7.41q1.47-5.57,3.59-7.62t6.39-2q4.54,0,5.19,2.8l.06,0,.53-2.5Zm-8.58,2q-3.19,0-4.49,1.35t-2.51,5.91q-1.22,4.6-.63,6t3.77,1.37q3.23,0,4.65-1.51t2.68-6.26q1.11-4.19.43-5.52T209.46,107.27Z"/><path id="_Compound_Path_19" data-name="&lt;Compound Path&gt;" class="cls-2" d="M227.58,97.35l-2.71,10.23,0,0q1.71-2.6,6.41-2.6,7,0,5.31,6.22l-.2.76-3.14,11.87H230.6L233.73,112l.14-.52q1.11-4.19-3.16-4.2-3.44,0-4.92,1.23t-2.46,4.9l-2.76,10.45h-2.7l7-26.51Z"/><path id="_Compound_Path_20" data-name="&lt;Compound Path&gt;" class="cls-2" d="M252.91,105.29l-.6,2.25h-7.11l-3,11.36q-.79,3,1.84,3a3.17,3.17,0,0,0,3.31-2.66l.26-.91.31-1h2.51l-.34,1.38q-1.45,5.48-6.63,5.48-5.35,0-4.15-4.56l.17-.66,3-11.36H240l.6-2.25h2.55l1.18-4.47H247l-1.18,4.47Z"/><path id="_Compound_Path_21" data-name="&lt;Compound Path&gt;" class="cls-2" d="M255.13,120.29l-1,3.84q-1,3.63-3.59,3.63l-.72,0,.39-1.48a2.12,2.12,0,0,0,2.11-1.71l.16-.68h-1.26l.94-3.57Z"/><path id="_Compound_Path_22" data-name="&lt;Compound Path&gt;" class="cls-2" d="M279,97.35l-7,26.51h-3l7-26.51Z"/><path id="_Compound_Path_23" data-name="&lt;Compound Path&gt;" class="cls-2" d="M297.26,105.29,292,125.06q-1.07,4-3.21,5.55T282,132.13q-4.13,0-5.3-1.28t-.24-4.8h2.61q-.63,2.39.06,3.11t3.66.72a7.83,7.83,0,0,0,4.4-.93,6.34,6.34,0,0,0,2-3.65l1-3.73-.05,0q-1.73,2.58-6.71,2.58-4.1,0-5.11-2t.41-7.41q1.47-5.57,3.59-7.62t6.39-2q4.54,0,5.19,2.8l.06,0,.53-2.5Zm-8.58,2q-3.19,0-4.49,1.35t-2.51,5.91q-1.22,4.6-.63,6t3.77,1.37q3.23,0,4.65-1.51t2.68-6.26q1.11-4.19.43-5.52T288.68,107.27Z"/><path id="_Compound_Path_24" data-name="&lt;Compound Path&gt;" class="cls-2" d="M302,105.29h2.61l-.74,2.52.06.06q2-2.85,6.9-2.86,4,0,5,1.4t0,5.36l-3.19,12.08h-2.7L313,112l.19-.7q.63-2.39-.06-3.21t-3.28-.83q-5.7,0-7.13,5.42l-3,11.17h-2.71Z"/><path id="_Compound_Path_25" data-name="&lt;Compound Path&gt;" class="cls-2" d="M325.1,105.29l-4.91,18.57h-2.71l4.91-18.57Zm2.1-7.94-.81,3h-2.7l.81-3Z"/><path id="_Compound_Path_26" data-name="&lt;Compound Path&gt;" class="cls-2" d="M339.63,105.29l-.6,2.25h-7.11l-3,11.36q-.79,3,1.84,3a3.17,3.17,0,0,0,3.31-2.66l.26-.91.31-1h2.51l-.35,1.38q-1.45,5.48-6.63,5.48-5.35,0-4.15-4.56l.17-.66,3-11.36h-2.55l.6-2.25h2.55l1.18-4.47h2.7l-1.18,4.47Z"/><path id="_Compound_Path_27" data-name="&lt;Compound Path&gt;" class="cls-2" d="M352.14,118.25h2.76l-.16.68a6.16,6.16,0,0,1-2.82,4q-2.05,1.16-6.44,1.16-5.1,0-6.2-1.87t.49-7.88q1.47-5.55,3.57-7.46t6.78-1.9q5.1,0,6.25,1.65t-.25,7l-.38,1.46H342.45q-1.16,4.39-.54,5.59t4.06,1.2a11.12,11.12,0,0,0,4.39-.57,3.62,3.62,0,0,0,1.63-2.48Zm1.4-5.28.21-.87q.8-3,0-3.91t-4-.9q-3.28,0-4.54,1.06T343,113Z"/><path id="_Compound_Path_28" data-name="&lt;Compound Path&gt;" class="cls-2" d="M373.94,110.5h-2.69q.86-3.24,2.61-4.36t6-1.12q4.62,0,5.88,1.37t.24,5.21l-3.24,12.25H380l.74-2-.05,0q-2.15,2.29-6.88,2.29-7,0-5.5-5.65a7.71,7.71,0,0,1,2.79-4.64q1.9-1.28,6-1.28,4.87,0,5.33,1.92l.06,0,.6-2.25q.84-3.19.22-4.13t-3.56-.94q-5,0-5.73,2.82C374,110,374,110.22,373.94,110.5Zm3.24,4.18a9.17,9.17,0,0,0-4.22.66,4.45,4.45,0,0,0-1.69,2.84q-.6,2.25.14,3t3.58.73q5.72,0,6.64-3.5.58-2.2-.33-3T377.18,114.67Z"/><path id="_Compound_Path_29" data-name="&lt;Compound Path&gt;" class="cls-2" d="M416.24,105.29l-11.09,18.57h-3.88L400,105.29h2.78l.6,10.1.19,3.17.06,1.59.08,1.59h.08l.88-1.57.89-1.59,1.82-3.15,5.81-10.14Z"/><path id="_Compound_Path_30" data-name="&lt;Compound Path&gt;" class="cls-2" d="M421.19,105.29l-4.91,18.57h-2.71l4.91-18.57Zm2.1-7.94-.81,3h-2.7l.81-3Z"/><path id="_Compound_Path_31" data-name="&lt;Compound Path&gt;" class="cls-2" d="M439,110.15h-2.7q.51-1.94-.15-2.41t-3.91-.47a10.06,10.06,0,0,0-4,.5,3.56,3.56,0,0,0-1.44,2.38q-.75,2.86,1.93,3l2.15.12,2.73.14q5,.25,3.63,5.28a6.67,6.67,0,0,1-2.8,4.29q-2,1.17-6.39,1.16t-6-1.11q-1.42-1.11-.64-4.06l.29-1h2.8l-.21.87q-.48,1.82.28,2.44t3.49.61a11,11,0,0,0,4.57-.64,4,4,0,0,0,1.76-2.68q.78-2.93-1.87-2.93-6.16,0-7.83-1t-.79-4.35q.83-3.13,2.64-4.17t6.39-1q7.34,0,6.17,4.45Z"/><path id="_Compound_Path_32" data-name="&lt;Compound Path&gt;" class="cls-2" d="M447.37,105.29l-4.91,18.57h-2.71l4.91-18.57Zm2.1-7.94-.81,3H446l.81-3Z"/><path id="_Compound_Path_33" data-name="&lt;Compound Path&gt;" class="cls-2" d="M459.8,105q5.12,0,6.17,1.79t-.53,7.77q-1.58,6-3.58,7.77t-7.12,1.79q-5.1,0-6.16-1.79t.53-7.77q1.58-6,3.58-7.77T459.8,105Zm-.6,2.25q-3.59,0-4.76,1.18T452,114.58q-1.31,5-.76,6.13t4.14,1.18q3.61,0,4.78-1.18t2.48-6.13q1.31-5,.76-6.13T459.21,107.27Z"/><path id="_Compound_Path_34" data-name="&lt;Compound Path&gt;" class="cls-2" d="M472.12,105.29h2.61l-.74,2.52.06.06q2-2.85,6.9-2.86,4,0,5,1.4t0,5.36l-3.19,12.08H480L483.15,112l.19-.7q.63-2.39-.06-3.21t-3.28-.83q-5.7,0-7.13,5.42l-3,11.17h-2.71Z"/></g><g id="_Group_3" data-name="&lt;Group&gt;"><path id="_Compound_Path_35" data-name="&lt;Compound Path&gt;" class="cls-2" d="M474.55,3.52v13h-1.64v-13h-4.73V2h11.06V3.52Z"/><path id="_Compound_Path_36" data-name="&lt;Compound Path&gt;" class="cls-2" d="M497,2V16.52h-1.64V3.16h0l-.13.34-.13.33-.28.68-4.95,12h-1.64l-5-11.87L482.93,4l-.13-.34q-.05-.12-.13-.33h0V16.52H481V2h2.84l3.87,9.39.62,1.52.31.76.3.76h0l.3-.76q.22-.54.3-.76l.63-1.51L494.07,2Z"/></g></svg>